<svg xmlns="http://www.w3.org/2000/svg" viewBox="0 0 64 64">
  <rect width="64" height="64" rx="12" fill="#1e293b"/>
  <rect x="8" y="16" width="48" height="32" rx="4" fill="#334155"/>
  <rect x="14" y="22" width="6" height="6" rx="1" fill="#94a3b8"/>
  <rect x="22" y="22" width="6" height="6" rx="1" fill="#94a3b8"/>
  <rect x="30" y="22" width="6" height="6" rx="1" fill="#94a3b8"/>
  <rect x="38" y="22" width="6" height="6" rx="1" fill="#94a3b8"/>
  <rect x="46" y="22" width="6" height="6" rx="1" fill="#94a3b8"/>
  <rect x="17" y="30" width="30" height="6" rx="1" fill="#94a3b8"/>
  <rect x="14" y="38" width="8" height="4" rx="1" fill="#94a3b8"/>
  <rect x="24" y="38" width="8" height="4" rx="1" fill="#94a3b8"/>
  <rect x="34" y="38" width="8" height="4" rx="1" fill="#94a3b8"/>
  <rect x="44" y="38" width="8" height="4" rx="1" fill="#94a3b8"/>
  <text x="32" y="56" text-anchor="middle" fill="#facc15" font-size="8" font-family="sans-serif">KB</text>
</svg>
